<?xml version="1.0" standalone="no"?>
<!DOCTYPE svg PUBLIC "-//W3C//DTD SVG 20010904//EN"
 "http://www.w3.org/TR/2001/REC-SVG-20010904/DTD/svg10.dtd">
<svg version="1.0" xmlns="http://www.w3.org/2000/svg"
 width="666.000000pt" height="375.000000pt" viewBox="0 0 666.000000 375.000000"
 preserveAspectRatio="xMidYMid meet">

<g transform="translate(0.000000,375.000000) scale(0.100000,-0.100000)"
fill="#000000" stroke="none">
<path d="M3160 3634 c-14 -2 -65 -11 -115 -20 -568 -97 -1036 -460 -1274 -990
-50 -112 -107 -308 -126 -434 -17 -112 -20 -375 -4 -487 41 -305 175 -609 377
-856 73 -90 223 -230 321 -301 106 -76 323 -186 452 -229 191 -64 306 -81 539
-81 233 0 348 17 539 81 129 43 346 153 452 229 376 271 636 702 698 1157 16
113 13 371 -4 485 -89 593 -490 1102 -1045 1326 -209 85 -372 117 -610 121
-96 2 -186 1 -200 -1z m632 -833 l3 74 118 3 117 3 0 -198 0 -198 195 -195
c107 -107 195 -199 195 -204 0 -11 -137 -146 -148 -146 -4 0 -221 214 -482
475 l-475 475 -480 -480 -480 -480 -78 78 -78 78 557 558 556 558 239 -238
238 -238 3 75z m-850 -454 c-4 -64 0 -82 23 -130 50 -107 162 -172 440 -257
270 -83 416 -158 520 -266 64 -67 100 -137 120 -229 18 -87 19 -142 1 -226
-21 -99 -53 -157 -131 -236 -83 -84 -190 -141 -315 -170 -116 -26 -359 -24
-471 5 -295 73 -496 274 -516 515 l-6 68 134 -3 134 -3 7 -58 c18 -145 106
-241 273 -298 60 -21 89 -24 205 -24 116 0 145 3 210 25 62 20 85 34 132 80
46 45 60 66 73 114 31 107 5 225 -66 294 -65 63 -178 113 -445 196 -227 71
-366 147 -472 260 -33 36 -67 84 -77 110 -21 54 -27 44 125 199 58 58 105 106
105 107 0 0 -1 -33 -3 -73z"/>
</g>
</svg>
