<svg xmlns="http://www.w3.org/2000/svg" xmlns:xlink="http://www.w3.org/1999/xlink" width="1920" zoomAndPan="magnify" viewBox="0 0 1440 809.999993" height="1080" preserveAspectRatio="xMidYMid meet" version="1.0"><path fill="#918db8" d="M 697.636719 173.265625 C 695.792969 173.527344 689.074219 174.714844 682.484375 175.902344 C 633.078125 184.335938 591.179688 206.742188 557.054688 242.855469 C 525.828125 275.804688 504.75 319.035156 498.027344 363.582031 C 495.789062 378.34375 495.394531 413.007812 497.5 427.769531 C 502.902344 467.96875 520.558594 508.035156 547.171875 540.589844 C 556.792969 552.453125 576.554688 570.90625 589.464844 580.261719 C 603.433594 590.28125 632.023438 604.777344 649.019531 610.445312 C 674.183594 618.878906 689.335938 621.121094 720.035156 621.121094 C 750.734375 621.121094 765.886719 618.878906 791.050781 610.445312 C 808.046875 604.777344 836.636719 590.28125 850.601562 580.261719 C 900.144531 544.546875 934.398438 487.738281 942.566406 427.769531 C 944.675781 412.875 944.28125 378.871094 942.039062 363.847656 C 930.316406 285.558594 877.746094 219 804.226562 188.949219 C 777.742188 178.140625 755.214844 173.660156 723.988281 173.132812 C 711.339844 172.867188 699.480469 173 697.636719 173.265625 Z M 780.90625 283.054688 L 781.300781 273.300781 L 796.847656 272.90625 L 812.261719 272.511719 L 812.261719 324.703125 L 837.953125 350.402344 C 852.050781 364.507812 863.648438 376.632812 863.648438 377.289062 C 863.648438 378.742188 845.597656 396.535156 844.148438 396.535156 C 843.621094 396.535156 815.03125 368.328125 780.640625 333.929688 L 718.058594 271.324219 L 654.816406 334.585938 L 591.574219 397.851562 L 571.019531 377.289062 L 644.40625 303.746094 L 717.664062 230.203125 L 749.152344 261.570312 L 780.511719 292.9375 Z M 668.914062 342.890625 C 668.386719 351.328125 668.914062 353.699219 671.945312 360.023438 C 678.53125 374.128906 693.289062 382.695312 729.917969 393.898438 C 765.488281 404.835938 784.726562 414.722656 798.429688 428.957031 C 806.859375 437.785156 811.605469 447.011719 814.238281 459.136719 C 816.609375 470.605469 816.742188 477.855469 814.371094 488.925781 C 811.605469 501.972656 807.386719 509.617188 797.109375 520.03125 C 786.175781 531.101562 772.078125 538.613281 755.609375 542.4375 C 740.324219 545.863281 708.308594 545.597656 693.550781 541.777344 C 654.683594 532.15625 628.203125 505.664062 625.566406 473.898438 L 624.777344 464.9375 L 642.429688 465.332031 L 660.085938 465.730469 L 661.007812 473.375 C 663.378906 492.484375 674.976562 505.136719 696.976562 512.648438 C 704.882812 515.417969 708.703125 515.8125 723.988281 515.8125 C 739.269531 515.8125 743.089844 515.417969 751.65625 512.519531 C 759.824219 509.882812 762.855469 508.035156 769.046875 501.972656 C 775.109375 496.042969 776.953125 493.273438 778.664062 486.949219 C 782.75 472.847656 779.324219 457.292969 769.96875 448.199219 C 761.40625 439.894531 746.515625 433.304688 711.339844 422.367188 C 681.429688 413.007812 663.117188 402.992188 649.152344 388.097656 C 644.804688 383.355469 640.324219 377.027344 639.003906 373.601562 C 636.238281 366.484375 635.449219 367.800781 655.476562 347.371094 C 663.117188 339.726562 669.308594 333.402344 669.308594 333.269531 C 669.308594 333.269531 669.175781 337.617188 668.914062 342.890625 Z M 668.914062 342.890625 " fill-opacity="1" fill-rule="nonzero"/></svg>